Coordinates
version=1
nRows=6
nColumns=63
inDegrees=yes

Units are S.I. units (second, meters, Newtons, ...)
If the header above contains a line with 'inDegrees', this indicates whether rotational values are in degrees (yes) or radians (no).

endheader
time	pelvis_tilt	pelvis_list	pelvis_rotation	pelvis_tx	pelvis_ty	pelvis_tz	hip_flexion_r	hip_adduction_r	hip_rotation_r	knee_angle_r	knee_angle_r_beta	ankle_angle_r	subtalar_angle_r	mtp_angle_r	hip_flexion_l	hip_adduction_l	hip_rotation_l	knee_angle_l	knee_angle_l_beta	ankle_angle_l	subtalar_angle_l	mtp_angle_l	L5_S1_Flex_Ext	L5_S1_Lat_Bending	L5_S1_axial_rotation	L4_L5_Flex_Ext	L4_L5_Lat_Bending	L4_L5_axial_rotation	L3_L4_Flex_Ext	L3_L4_Lat_Bending	L3_L4_axial_rotation	L2_L3_Flex_Ext	L2_L3_Lat_Bending	L2_L3_axial_rotation	L1_L2_Flex_Ext	L1_L2_Lat_Bending	L1_L2_axial_rotation	L1_T12_Flex_Ext	L1_T12_Lat_Bending	L1_T12_axial_rotation	Abs_r3	Abs_r2	Abs_r1	Abs_t1	Abs_t2	neck_flexion	neck_bending	neck_rotation	arm_flex_r	arm_add_r	arm_rot_r	elbow_flex_r	pro_sup_r	wrist_flex_r	wrist_dev_r	arm_flex_l	arm_add_l	arm_rot_l	elbow_flex_l	pro_sup_l	wrist_flex_l	wrist_dev_l
1.553191	8.747280	-11.038381	110.853713	0.346879	0.433229	0.986599	21.667216	-0.664842	-10.088582	9.976568	0.174124	13.847313	8.619971	0.000000	21.919080	-1.226579	-13.439650	10.631564	0.185556	18.575510	9.608554	0.000000	-0.227783	-0.278271	-1.866314	-0.423016	-0.370100	-1.982959	-0.374225	-0.676587	-1.982959	-0.260333	-0.676587	-1.633025	-0.211519	-0.567449	-1.516380	-0.130155	-0.431041	-1.399736	-1.627031	-3.147852	-10.379879	0.000000	0.000000	17.480790	7.077005	-32.698227	67.078292	-43.606485	15.259665	115.085975	88.485630	0.733128	10.352653	13.878838	-29.962030	70.733386	18.099010	47.225263	-8.738200	-5.282239
1.574468	8.783110	-11.199926	110.783470	0.347183	0.432884	0.986672	21.941546	-0.609822	-9.469247	10.069582	0.175747	13.553620	7.549321	0.000000	22.134984	-1.248216	-13.538344	10.618999	0.185337	18.721725	9.905669	0.000000	-0.236012	-0.244134	-1.851293	-0.438297	-0.324699	-1.966999	-0.387743	-0.593588	-1.966999	-0.269738	-0.593588	-1.619882	-0.219160	-0.497839	-1.504176	-0.134857	-0.378164	-1.388470	-1.685807	-2.761697	-10.296337	0.000000	0.000000	18.307068	6.262081	-33.206093	67.143613	-44.246859	15.381313	116.061583	88.411208	2.883301	11.790664	13.323576	-30.134470	69.358607	18.553458	46.473948	-8.372818	-5.454549
1.595745	8.838852	-11.331815	110.728595	0.347496	0.432457	0.986762	22.178849	-0.520411	-8.768345	10.129852	0.176799	13.271772	6.396838	0.000000	22.341806	-1.293142	-13.565980	10.634277	0.185603	18.869659	10.098236	0.000000	-0.245009	-0.208876	-1.834803	-0.455007	-0.277805	-1.949478	-0.402526	-0.507861	-1.949478	-0.280021	-0.507861	-1.605452	-0.227516	-0.425940	-1.490777	-0.139998	-0.323549	-1.376102	-1.750076	-2.362848	-10.204622	0.000000	0.000000	19.178406	5.499382	-33.730193	67.266403	-44.783984	15.574600	117.230982	88.358987	5.320611	12.779423	12.811378	-30.307119	67.870910	19.042496	45.838281	-7.931476	-5.690262
1.617021	8.893409	-11.427940	110.687892	0.347794	0.432003	0.986870	22.354178	-0.418382	-8.015195	10.139297	0.176964	13.007739	5.231785	0.000000	22.511386	-1.339926	-13.552157	10.650062	0.185879	19.016321	10.220775	0.000000	-0.253891	-0.176180	-1.829355	-0.471502	-0.234319	-1.943690	-0.417118	-0.428364	-1.943690	-0.290173	-0.428364	-1.600686	-0.235764	-0.359266	-1.486351	-0.145074	-0.272903	-1.372016	-1.813521	-1.992983	-10.174325	0.000000	0.000000	20.012555	4.859682	-34.164416	67.354217	-45.167397	15.871277	118.502405	88.344307	7.448678	13.080536	12.315110	-30.499654	66.320277	19.555476	45.438739	-7.604802	-6.005833
1.638298	8.941745	-11.471245	110.662050	0.348048	0.431579	0.986977	22.446946	-0.307609	-7.250869	10.102029	0.176314	12.777018	4.114807	0.000000	22.620414	-1.389419	-13.495194	10.665170	0.186142	19.172144	10.296610	0.000000	-0.261781	-0.146375	-1.844099	-0.486154	-0.194679	-1.959356	-0.430081	-0.355897	-1.959356	-0.299190	-0.355897	-1.613587	-0.243090	-0.298489	-1.498331	-0.149582	-0.226736	-1.383074	-1.869878	-1.655828	-10.256327	0.000000	0.000000	20.735083	4.437730	-34.324243	67.337424	-45.314888	16.248029	119.795206	88.360750	9.068180	12.833522	11.834885	-30.667635	64.848053	19.987953	45.422788	-7.509686	-6.400003
1.659574	8.964631	-11.453451	110.659410	0.348288	0.431257	0.987024	22.433869	-0.203164	-6.517036	10.014077	0.174779	12.596199	3.095780	0.000000	22.647390	-1.426310	-13.400060	10.673738	0.186292	19.310831	10.312646	0.000000	-0.268365	-0.122134	-1.883360	-0.498381	-0.162438	-2.001070	-0.440897	-0.296956	-2.001070	-0.306715	-0.296956	-1.647940	-0.249204	-0.249055	-1.530230	-0.153344	-0.189185	-1.412520	-1.916905	-1.381602	-10.474681	0.000000	0.000000	21.277500	4.257852	-34.087534	67.149884	-45.120899	16.580512	121.018989	88.403223	10.182473	12.242468	11.395157	-30.819456	63.629831	20.309808	45.951836	-7.814100	-6.787842
